<?xml version="1.0" encoding="UTF-8"?>
<svg width="14px" height="14px" viewBox="0 0 14 14" version="1.1" xmlns="http://www.w3.org/2000/svg" xmlns:xlink="http://www.w3.org/1999/xlink">
    <title>变更执行</title>
    <g id="页面-1" stroke="none" stroke-width="1" fill="none" fill-rule="evenodd" fill-opacity="0.6">
        <g id="执行" transform="translate(-1165.000000, -86.000000)" fill="#FFFFFF" fill-rule="nonzero">
            <g id="编组-12备份" transform="translate(1165.000000, 84.000000)">
                <g id="变更执行" transform="translate(0.000000, 2.000000)">
                    <rect id="矩形" opacity="0" x="0" y="0" width="14" height="14"></rect>
                    <path d="M5.44960938,6.51191406 L1.47109375,6.51191406 C0.901189504,6.50966589 0.439748169,6.04822456 0.4375,5.47832031 L0.4375,1.49980469 C0.4375,0.928299338 0.899592864,0.464368289 1.47109375,0.462109375 L5.44960938,0.462109375 C6.01951362,0.464357544 6.48095496,0.925798879 6.48320313,1.49570312 L6.48320313,5.47421875 C6.48320313,6.0457241 6.02111026,6.50965515 5.44960938,6.51191406 Z M1.47109375,1.07734375 C1.24457071,1.07734375 1.0609375,1.26097696 1.0609375,1.4875 L1.0609375,5.46601562 C1.0609375,5.69253867 1.24457071,5.87617187 1.47109375,5.87617187 L5.44960938,5.87617187 C5.67613242,5.87617187 5.85976563,5.69253867 5.85976563,5.46601562 L5.85976563,1.49980469 C5.85976563,1.27328165 5.67613242,1.08964844 5.44960938,1.08964844 L1.47109375,1.07734375 Z M12.4714844,13.5132812 L8.49296875,13.5132812 C7.9230645,13.5110331 7.46162317,13.0495917 7.459375,12.4796875 L7.459375,8.50117187 C7.46162317,7.93126763 7.9230645,7.46982629 8.49296875,7.46757812 L12.4714844,7.46757812 C13.0413886,7.46982629 13.50283,7.93126763 13.5050781,8.50117187 L13.5050781,12.4796875 C13.50283,13.0495917 13.0413886,13.5110331 12.4714844,13.5132812 L12.4714844,13.5132812 Z M8.49296875,8.07871094 C8.26644571,8.07871094 8.0828125,8.26234415 8.0828125,8.48886719 L8.0828125,12.4673828 C8.0828125,12.6939059 8.26644571,12.8775391 8.49296875,12.8775391 L12.4714844,12.8775391 C12.6980074,12.8775391 12.8816406,12.6939059 12.8816406,12.4673828 L12.8816406,8.48886719 C12.8816406,8.26234415 12.6980074,8.07871094 12.4714844,8.07871094 L8.49296875,8.07871094 Z M12.3115234,5.97460937 C12.2299286,5.97246255 12.1525321,5.93797534 12.096375,5.87874108 C12.0402178,5.81950683 12.0099045,5.74038233 12.0121094,5.65878906 C12.0927335,4.64636185 11.7479235,3.6461156 11.0605469,2.8984375 C10.3150238,2.23182859 9.35351602,1.85742328 8.35351562,1.84433594 C8.27160655,1.84655051 8.19228185,1.8155534 8.13357492,1.75839139 C8.07486798,1.70122937 8.04176913,1.62275931 8.04176913,1.54082031 C8.04070179,1.45923304 8.07206573,1.38055309 8.1289875,1.32209289 C8.18590928,1.26363269 8.26372503,1.23018214 8.3453125,1.22909943 C9.51540855,1.22798868 10.6440759,1.66220396 11.5117187,2.44726562 C12.3203819,3.31739529 12.7266298,4.48703228 12.6314453,5.67109375 C12.6304046,5.75414224 12.5958264,5.83324097 12.535573,5.89040445 C12.4753196,5.94756793 12.3945117,5.9779381 12.3115234,5.97460937 L12.3115234,5.97460937 Z M11.396875,4.82617187 L13.2261719,4.79335937 L12.3361328,6.58984375 L11.396875,4.82617187 L11.396875,4.82617187 Z M5.46191406,12.8201172 C4.30263165,12.8102931 3.18795126,12.3720177 2.33242188,11.5896484 C1.52375876,10.7195188 1.1175108,9.54988178 1.21269531,8.36582031 C1.2193526,8.19688429 1.3594649,8.06405056 1.52851563,8.0663754 C1.61011044,8.06855308 1.68750693,8.10304028 1.74366408,8.16227454 C1.79982123,8.2215088 1.83013454,8.3006333 1.82792969,8.38222656 C1.74099496,9.39694702 2.08143553,10.4019157 2.7671875,11.1548828 C3.51277511,11.8245487 4.4762238,12.2005998 5.47832031,12.2130859 C5.64821259,12.2130859 5.7859375,12.3508108 5.7859375,12.5207031 C5.7859375,12.6905954 5.64821259,12.8283203 5.47832031,12.8283203 L5.46191406,12.8201172 Z M2.43085938,9.21074219 L0.6015625,9.23945312 L1.49160156,7.44296875 L2.43085938,9.21074219 Z" id="形状" stroke-opacity="0.6" stroke="#FFFFFF" stroke-width="0.5"></path>
                </g>
            </g>
        </g>
    </g>
</svg>