<?xml version="1.0" encoding="UTF-8"?>
<svg width="16px" height="16px" viewBox="0 0 16 16" version="1.1" xmlns="http://www.w3.org/2000/svg" xmlns:xlink="http://www.w3.org/1999/xlink">
    <title>失败</title>
    <g stroke="none" stroke-width="1" fill="none" fill-rule="evenodd">
        <g transform="translate(-749.000000, -203.000000)" fill="#E84335" fill-rule="nonzero">
            <g transform="translate(16.000000, 128.000000)">
                <g transform="translate(715.000000, 74.000000)">
                    <g transform="translate(18.000000, 1.000000)">
                        <rect opacity="0" x="0" y="0" width="16" height="16"></rect>
                        <path d="M8.01089063,0.991328125 C4.14310937,0.991328125 1.00764062,4.12679688 1.00764062,7.99457813 C1.00764062,11.8623906 4.14310937,14.9978281 8.01089063,14.9978281 C11.8787031,14.9978281 15.0141406,11.8623906 15.0141406,7.99457813 C15.0141406,4.12678125 11.8787031,0.991328125 8.01089063,0.991328125 Z M10.7919844,10.081375 C10.9836094,10.2731406 10.9836094,10.5840312 10.7919844,10.7755469 C10.6000469,10.9673125 10.2892969,10.9673125 10.0973906,10.7755469 L8.0143125,8.69246875 L5.93109375,10.7755469 C5.7393125,10.9673125 5.4285625,10.9673125 5.23664062,10.7755469 C5.04498437,10.5840469 5.04498437,10.2731406 5.23664062,10.081375 L7.31998437,7.99773437 L5.23664062,5.91464062 C5.04498437,5.72314062 5.04498437,5.41198437 5.23664062,5.22020312 C5.42854687,5.02870312 5.73929687,5.02870312 5.93109375,5.22020312 L8.0143125,7.3035625 L10.0973906,5.22020312 C10.2892969,5.02870312 10.6000469,5.02870312 10.7919687,5.22020312 C10.9836094,5.41198437 10.9836094,5.72317187 10.7919687,5.91464062 L8.70860937,7.99773438 L10.7919688,10.081375 L10.7919844,10.081375 Z"></path>
                    </g>
                </g>
            </g>
        </g>
    </g>
</svg>