<?xml version="1.0" encoding="UTF-8"?>
<svg width="16px" height="16px" viewBox="0 0 16 16" version="1.1" xmlns="http://www.w3.org/2000/svg" xmlns:xlink="http://www.w3.org/1999/xlink">
    <title>通过备份 2</title>
    <g stroke="none" stroke-width="1" fill="none" fill-rule="evenodd">
        <g transform="translate(-617.000000, -203.000000)" fill-rule="nonzero">
            <g transform="translate(16.000000, 128.000000)">
                <g transform="translate(583.000000, 74.000000)">
                    <g transform="translate(18.000000, 1.000000)">
                        <rect fill="#000000" opacity="0" x="0" y="0" width="16" height="16"></rect>
                        <path d="M13.325,4.0875 L13.425,4.1875 L13.325,4.0875 Z" fill="#68BB8D"></path>
                        <path d="M8.034375,1.5609375 C4.4640625,1.5609375 1.5703125,4.4546875 1.5703125,8.025 C1.5703125,11.5953125 4.4640625,14.4890625 8.034375,14.4890625 C11.6046875,14.4890625 14.496875,11.59375 14.496875,8.0234375 C14.496875,4.453125 11.6015625,1.5609375 8.034375,1.5609375 Z M11.125,6.7296875 L8.640625,9.171875 L7.4375,10.3484375 C7.4328125,10.3546875 7.4265625,10.3609375 7.41875,10.36875 C7.409375,10.378125 7.3984375,10.3875 7.3875,10.396875 C7.3125,10.46875 7.2140625,10.5078125 7.109375,10.5078125 L7.0921875,10.5078125 C6.9828125,10.5078125 6.88125,10.4671875 6.80625,10.3921875 C6.7953125,10.3828125 6.7859375,10.3734375 6.7765625,10.365625 C6.7703125,10.359375 6.765625,10.3546875 6.7609375,10.3484375 L4.7546875,8.3421875 C4.5921875,8.1796875 4.603125,7.9046875 4.778125,7.7296875 C4.8671875,7.640625 4.9859375,7.590625 5.10625,7.590625 C5.215625,7.590625 5.3171875,7.63125 5.3921875,7.70625 L7.1015625,9.415625 L8.009375,8.528125 L10.4953125,6.0859375 C10.5703125,6.0125 10.6703125,5.9734375 10.778125,5.9734375 C10.9,5.9734375 11.0203125,6.025 11.109375,6.115625 C11.28125,6.29375 11.290625,6.56875 11.125,6.7296875 L11.125,6.7296875 Z" fill="#68BB8D"></path>
                    </g>
                </g>
            </g>
        </g>
    </g>
</svg>