<?xml version="1.0" encoding="UTF-8"?>
<svg width="16px" height="16px" viewBox="0 0 16 16" version="1.1" xmlns="http://www.w3.org/2000/svg" xmlns:xlink="http://www.w3.org/1999/xlink">
    <title>minus-circle-fill</title>
    <g stroke="none" stroke-width="1" fill="none" fill-rule="evenodd">
        <g transform="translate(-875.000000, -203.000000)" fill="#CCCCCC" fill-rule="nonzero">
            <g transform="translate(16.000000, 128.000000)">
                <g transform="translate(841.000000, 74.000000)">
                    <g transform="translate(18.000000, 1.000000)">
                        <rect opacity="0" x="0" y="0" width="16" height="16"></rect>
                        <path d="M8,1 C4.134375,1 1,4.134375 1,8 C1,11.865625 4.134375,15 8,15 C11.865625,15 15,11.865625 15,8 C15,4.134375 11.865625,1 8,1 Z M11,8.375 C11,8.44375 10.94375,8.5 10.875,8.5 L5.125,8.5 C5.05625,8.5 5,8.44375 5,8.375 L5,7.625 C5,7.55625 5.05625,7.5 5.125,7.5 L10.875,7.5 C10.94375,7.5 11,7.55625 11,7.625 L11,8.375 Z"></path>
                    </g>
                </g>
            </g>
        </g>
    </g>
</svg>